<mxfile host="app.diagrams.net" modified="2024-05-23T22:40:14.538Z" agent="Mozilla/5.0 (Macintosh; Intel Mac OS X 10_15_7) AppleWebKit/605.1.15 (KHTML, like Gecko) Version/15.6 Safari/605.1.15" etag="tluqQk15TLSLjrnSVe3z" version="24.4.4" type="github">
  <diagram name="Pagina-1" id="woLgoflBnYrOJVL_EDXt">
    <mxGraphModel dx="2568" dy="1567" grid="0" gridSize="10" guides="1" tooltips="1" connect="1" arrows="1" fold="1" page="0" pageScale="1" pageWidth="827" pageHeight="1169" math="0" shadow="0">
      <root>
        <mxCell id="0" />
        <mxCell id="1" parent="0" />
        <mxCell id="nYtGBeRSti1WLGGYR-Tt-8" value="Laboratorio/Ambulatorio" style="rounded=1;arcSize=10;whiteSpace=wrap;html=1;align=center;" parent="1" vertex="1">
          <mxGeometry x="957" y="559" width="194" height="40" as="geometry" />
        </mxCell>
        <mxCell id="nYtGBeRSti1WLGGYR-Tt-9" value="Esame" style="rounded=1;arcSize=10;whiteSpace=wrap;html=1;align=center;" parent="1" vertex="1">
          <mxGeometry x="980" y="755" width="132" height="40" as="geometry" />
        </mxCell>
        <mxCell id="nYtGBeRSti1WLGGYR-Tt-10" value="Prescrizione" style="rounded=1;arcSize=10;whiteSpace=wrap;html=1;align=center;" parent="1" vertex="1">
          <mxGeometry x="1377" y="755" width="132" height="40" as="geometry" />
        </mxCell>
        <mxCell id="nYtGBeRSti1WLGGYR-Tt-11" value="Paziente" style="rounded=1;arcSize=10;whiteSpace=wrap;html=1;align=center;" parent="1" vertex="1">
          <mxGeometry x="345" y="699" width="132" height="40" as="geometry" />
        </mxCell>
        <mxCell id="nYtGBeRSti1WLGGYR-Tt-13" value="Ricovero" style="rounded=1;arcSize=10;whiteSpace=wrap;html=1;align=center;" parent="1" vertex="1">
          <mxGeometry x="345" y="893" width="132" height="40" as="geometry" />
        </mxCell>
        <mxCell id="nYtGBeRSti1WLGGYR-Tt-14" value="TurnoPronto Soccorso" style="rounded=1;arcSize=10;whiteSpace=wrap;html=1;align=center;" parent="1" vertex="1">
          <mxGeometry x="-793" y="-386" width="253.5" height="66" as="geometry" />
        </mxCell>
        <mxCell id="nYtGBeRSti1WLGGYR-Tt-73" value="" style="endArrow=none;html=1;rounded=0;fontSize=12;startSize=8;endSize=8;curved=1;entryX=0.5;entryY=1;entryDx=0;entryDy=0;" parent="1" edge="1">
          <mxGeometry relative="1" as="geometry">
            <mxPoint x="1045.58" y="559" as="sourcePoint" />
            <mxPoint x="1045.58" y="512" as="targetPoint" />
          </mxGeometry>
        </mxCell>
        <mxCell id="nYtGBeRSti1WLGGYR-Tt-74" value="1" style="resizable=0;html=1;whiteSpace=wrap;align=right;verticalAlign=bottom;" parent="nYtGBeRSti1WLGGYR-Tt-73" connectable="0" vertex="1">
          <mxGeometry x="1" relative="1" as="geometry">
            <mxPoint x="14" y="17" as="offset" />
          </mxGeometry>
        </mxCell>
        <mxCell id="nYtGBeRSti1WLGGYR-Tt-77" value="" style="endArrow=none;html=1;rounded=0;fontSize=12;startSize=8;endSize=8;curved=1;entryX=0.5;entryY=1;entryDx=0;entryDy=0;" parent="1" edge="1">
          <mxGeometry relative="1" as="geometry">
            <mxPoint x="1045.66" y="646" as="sourcePoint" />
            <mxPoint x="1045.66" y="599" as="targetPoint" />
          </mxGeometry>
        </mxCell>
        <mxCell id="nYtGBeRSti1WLGGYR-Tt-78" value="N" style="resizable=0;html=1;whiteSpace=wrap;align=right;verticalAlign=bottom;" parent="nYtGBeRSti1WLGGYR-Tt-77" connectable="0" vertex="1">
          <mxGeometry x="1" relative="1" as="geometry">
            <mxPoint x="-4" y="48" as="offset" />
          </mxGeometry>
        </mxCell>
        <mxCell id="nYtGBeRSti1WLGGYR-Tt-79" value="" style="endArrow=none;html=1;rounded=0;fontSize=12;startSize=8;endSize=8;curved=1;entryX=0.5;entryY=1;entryDx=0;entryDy=0;" parent="1" edge="1">
          <mxGeometry relative="1" as="geometry">
            <mxPoint x="1045.66" y="754" as="sourcePoint" />
            <mxPoint x="1045.66" y="707" as="targetPoint" />
          </mxGeometry>
        </mxCell>
        <mxCell id="nYtGBeRSti1WLGGYR-Tt-80" value="M" style="resizable=0;html=1;whiteSpace=wrap;align=right;verticalAlign=bottom;" parent="nYtGBeRSti1WLGGYR-Tt-79" connectable="0" vertex="1">
          <mxGeometry x="1" relative="1" as="geometry">
            <mxPoint x="18" y="17" as="offset" />
          </mxGeometry>
        </mxCell>
        <mxCell id="nYtGBeRSti1WLGGYR-Tt-82" value="" style="endArrow=none;html=1;rounded=0;fontSize=12;startSize=8;endSize=8;curved=1;entryX=0;entryY=0.5;entryDx=0;entryDy=0;exitX=1;exitY=0.5;exitDx=0;exitDy=0;" parent="1" edge="1">
          <mxGeometry relative="1" as="geometry">
            <mxPoint x="1112" y="774.6600000000001" as="sourcePoint" />
            <mxPoint x="1177" y="774.6600000000001" as="targetPoint" />
          </mxGeometry>
        </mxCell>
        <mxCell id="nYtGBeRSti1WLGGYR-Tt-83" value="1" style="resizable=0;html=1;whiteSpace=wrap;align=right;verticalAlign=bottom;" parent="nYtGBeRSti1WLGGYR-Tt-82" connectable="0" vertex="1">
          <mxGeometry x="1" relative="1" as="geometry">
            <mxPoint as="offset" />
          </mxGeometry>
        </mxCell>
        <mxCell id="nYtGBeRSti1WLGGYR-Tt-84" value="" style="endArrow=none;html=1;rounded=0;fontSize=12;startSize=8;endSize=8;curved=1;" parent="1" edge="1">
          <mxGeometry relative="1" as="geometry">
            <mxPoint x="1311" y="774.3800000000001" as="sourcePoint" />
            <mxPoint x="1374" y="774.6700000000001" as="targetPoint" />
          </mxGeometry>
        </mxCell>
        <mxCell id="nYtGBeRSti1WLGGYR-Tt-85" value="N" style="resizable=0;html=1;whiteSpace=wrap;align=right;verticalAlign=bottom;" parent="nYtGBeRSti1WLGGYR-Tt-84" connectable="0" vertex="1">
          <mxGeometry x="1" relative="1" as="geometry">
            <mxPoint x="-54" y="-3" as="offset" />
          </mxGeometry>
        </mxCell>
        <mxCell id="nYtGBeRSti1WLGGYR-Tt-88" value="" style="endArrow=none;html=1;rounded=0;fontSize=12;startSize=8;endSize=8;curved=1;entryX=0.5;entryY=1;entryDx=0;entryDy=0;exitX=0.5;exitY=0;exitDx=0;exitDy=0;" parent="1" edge="1" target="nYtGBeRSti1WLGGYR-Tt-14" source="W7nRIWuPNDp_MP-GWuMY-126">
          <mxGeometry relative="1" as="geometry">
            <mxPoint x="-666.87" y="-223" as="sourcePoint" />
            <mxPoint x="-666.58" y="-280" as="targetPoint" />
          </mxGeometry>
        </mxCell>
        <mxCell id="nYtGBeRSti1WLGGYR-Tt-89" value="1" style="resizable=0;html=1;whiteSpace=wrap;align=right;verticalAlign=bottom;" parent="nYtGBeRSti1WLGGYR-Tt-88" connectable="0" vertex="1">
          <mxGeometry x="1" relative="1" as="geometry">
            <mxPoint x="16" y="74" as="offset" />
          </mxGeometry>
        </mxCell>
        <mxCell id="nYtGBeRSti1WLGGYR-Tt-90" value="" style="endArrow=none;html=1;rounded=0;fontSize=12;startSize=8;endSize=8;curved=1;entryX=0.5;entryY=0;entryDx=0;entryDy=0;" parent="1" edge="1" target="W7nRIWuPNDp_MP-GWuMY-122">
          <mxGeometry relative="1" as="geometry">
            <mxPoint x="-666" y="-173" as="sourcePoint" />
            <mxPoint x="-666.87" y="-107" as="targetPoint" />
          </mxGeometry>
        </mxCell>
        <mxCell id="nYtGBeRSti1WLGGYR-Tt-91" value="N" style="resizable=0;html=1;whiteSpace=wrap;align=right;verticalAlign=bottom;" parent="nYtGBeRSti1WLGGYR-Tt-90" connectable="0" vertex="1">
          <mxGeometry x="1" relative="1" as="geometry">
            <mxPoint x="-8" y="-67" as="offset" />
          </mxGeometry>
        </mxCell>
        <mxCell id="nYtGBeRSti1WLGGYR-Tt-101" value="&lt;p style=&quot;margin: 0px 0px 0px 72px; text-indent: -72px; font-stretch: normal; line-height: normal; font-family: Times;&quot;&gt;EsecuzioneEsami&lt;/p&gt;" style="shape=rhombus;double=1;perimeter=rhombusPerimeter;whiteSpace=wrap;html=1;align=center;" parent="1" vertex="1">
          <mxGeometry x="318" y="786" width="186" height="60" as="geometry" />
        </mxCell>
        <mxCell id="nYtGBeRSti1WLGGYR-Tt-102" value="" style="endArrow=none;html=1;rounded=0;fontSize=12;startSize=8;endSize=8;curved=1;entryX=0.5;entryY=1;entryDx=0;entryDy=0;" parent="1" edge="1">
          <mxGeometry relative="1" as="geometry">
            <mxPoint x="410.58000000000004" y="786" as="sourcePoint" />
            <mxPoint x="410.58000000000004" y="739" as="targetPoint" />
          </mxGeometry>
        </mxCell>
        <mxCell id="nYtGBeRSti1WLGGYR-Tt-103" value="N" style="resizable=0;html=1;whiteSpace=wrap;align=right;verticalAlign=bottom;" parent="nYtGBeRSti1WLGGYR-Tt-102" connectable="0" vertex="1">
          <mxGeometry x="1" relative="1" as="geometry">
            <mxPoint x="16" y="48" as="offset" />
          </mxGeometry>
        </mxCell>
        <mxCell id="nYtGBeRSti1WLGGYR-Tt-105" value="" style="endArrow=none;html=1;rounded=0;fontSize=12;startSize=8;endSize=8;curved=1;entryX=0.5;entryY=1;entryDx=0;entryDy=0;" parent="1" edge="1">
          <mxGeometry relative="1" as="geometry">
            <mxPoint x="410.58000000000004" y="893" as="sourcePoint" />
            <mxPoint x="410.58000000000004" y="846" as="targetPoint" />
          </mxGeometry>
        </mxCell>
        <mxCell id="nYtGBeRSti1WLGGYR-Tt-106" value="1" style="resizable=0;html=1;whiteSpace=wrap;align=right;verticalAlign=bottom;" parent="nYtGBeRSti1WLGGYR-Tt-105" connectable="0" vertex="1">
          <mxGeometry x="1" relative="1" as="geometry">
            <mxPoint x="18" y="17" as="offset" />
          </mxGeometry>
        </mxCell>
        <mxCell id="W7nRIWuPNDp_MP-GWuMY-2" value="" style="endArrow=none;html=1;rounded=0;fontSize=12;startSize=8;endSize=8;curved=1;entryX=0.5;entryY=1;entryDx=0;entryDy=0;" edge="1" parent="1">
          <mxGeometry relative="1" as="geometry">
            <mxPoint x="1045.55" y="453" as="sourcePoint" />
            <mxPoint x="1045.55" y="406" as="targetPoint" />
          </mxGeometry>
        </mxCell>
        <mxCell id="W7nRIWuPNDp_MP-GWuMY-3" value="1" style="resizable=0;html=1;whiteSpace=wrap;align=right;verticalAlign=bottom;" connectable="0" vertex="1" parent="W7nRIWuPNDp_MP-GWuMY-2">
          <mxGeometry x="1" relative="1" as="geometry">
            <mxPoint x="12" y="47" as="offset" />
          </mxGeometry>
        </mxCell>
        <mxCell id="W7nRIWuPNDp_MP-GWuMY-4" value="&lt;p style=&quot;margin: 0px 0px 0px 72px; text-indent: -72px; font-stretch: normal; line-height: normal; font-family: Times;&quot;&gt;&lt;b&gt;CodiceOspedale&lt;/b&gt;&lt;/p&gt;" style="ellipse;whiteSpace=wrap;html=1;align=center;fontStyle=4;" vertex="1" parent="1">
          <mxGeometry x="-503" y="-155" width="109" height="38" as="geometry" />
        </mxCell>
        <mxCell id="W7nRIWuPNDp_MP-GWuMY-7" value="&lt;p style=&quot;margin: 0px 0px 0px 72px; text-indent: -72px; font-stretch: normal; line-height: normal; font-family: Times;&quot;&gt;ServizioProntoSoccorso&lt;/p&gt;" style="ellipse;whiteSpace=wrap;html=1;align=center;" vertex="1" parent="1">
          <mxGeometry x="-1085" y="-69" width="147" height="40" as="geometry" />
        </mxCell>
        <mxCell id="W7nRIWuPNDp_MP-GWuMY-8" value="" style="endArrow=none;html=1;rounded=0;" edge="1" parent="1">
          <mxGeometry relative="1" as="geometry">
            <mxPoint x="-937" y="-49" as="sourcePoint" />
            <mxPoint x="-793" y="-49" as="targetPoint" />
          </mxGeometry>
        </mxCell>
        <mxCell id="W7nRIWuPNDp_MP-GWuMY-9" value="" style="endArrow=none;html=1;rounded=0;entryX=0.147;entryY=0.977;entryDx=0;entryDy=0;exitX=1;exitY=0.5;exitDx=0;exitDy=0;entryPerimeter=0;" edge="1" parent="1" source="W7nRIWuPNDp_MP-GWuMY-25" target="W7nRIWuPNDp_MP-GWuMY-122">
          <mxGeometry relative="1" as="geometry">
            <mxPoint x="-67" y="7" as="sourcePoint" />
            <mxPoint x="-10" y="-22" as="targetPoint" />
          </mxGeometry>
        </mxCell>
        <mxCell id="W7nRIWuPNDp_MP-GWuMY-11" value="" style="endArrow=none;html=1;rounded=0;entryX=0;entryY=1;entryDx=0;entryDy=0;" edge="1" parent="1" target="W7nRIWuPNDp_MP-GWuMY-4">
          <mxGeometry relative="1" as="geometry">
            <mxPoint x="-545" y="-88" as="sourcePoint" />
            <mxPoint x="-506" y="-109" as="targetPoint" />
          </mxGeometry>
        </mxCell>
        <mxCell id="W7nRIWuPNDp_MP-GWuMY-15" style="edgeStyle=orthogonalEdgeStyle;rounded=0;orthogonalLoop=1;jettySize=auto;html=1;exitX=0.5;exitY=1;exitDx=0;exitDy=0;" edge="1" parent="1">
          <mxGeometry relative="1" as="geometry">
            <mxPoint x="897.5" y="543" as="sourcePoint" />
            <mxPoint x="897.5" y="543" as="targetPoint" />
          </mxGeometry>
        </mxCell>
        <mxCell id="W7nRIWuPNDp_MP-GWuMY-20" value="&lt;p style=&quot;margin: 0px 0px 0px 72px; text-indent: -72px; font-stretch: normal; line-height: normal; font-family: Times;&quot;&gt;&lt;b&gt;CodiceLaboratorio&lt;/b&gt;&lt;/p&gt;" style="ellipse;whiteSpace=wrap;html=1;align=center;fontStyle=4;" vertex="1" parent="1">
          <mxGeometry x="-998" y="288" width="126" height="40" as="geometry" />
        </mxCell>
        <mxCell id="W7nRIWuPNDp_MP-GWuMY-21" value="" style="endArrow=none;html=1;rounded=0;exitX=0;exitY=0.75;exitDx=0;exitDy=0;entryX=1;entryY=0;entryDx=0;entryDy=0;" edge="1" parent="1" source="W7nRIWuPNDp_MP-GWuMY-123" target="W7nRIWuPNDp_MP-GWuMY-20">
          <mxGeometry relative="1" as="geometry">
            <mxPoint x="-891.0040000000001" y="245.11000000000018" as="sourcePoint" />
            <mxPoint x="-839.95" y="291" as="targetPoint" />
          </mxGeometry>
        </mxCell>
        <mxCell id="W7nRIWuPNDp_MP-GWuMY-22" value="" style="endArrow=none;html=1;rounded=0;exitX=1;exitY=0.5;exitDx=0;exitDy=0;" edge="1" parent="1">
          <mxGeometry relative="1" as="geometry">
            <mxPoint x="882.9999999999982" y="570" as="sourcePoint" />
            <mxPoint x="956" y="582" as="targetPoint" />
          </mxGeometry>
        </mxCell>
        <mxCell id="W7nRIWuPNDp_MP-GWuMY-23" value="GestioneReparti" style="shape=rhombus;perimeter=rhombusPerimeter;whiteSpace=wrap;html=1;align=center;" vertex="1" parent="1">
          <mxGeometry x="977" y="453" width="138" height="60" as="geometry" />
        </mxCell>
        <mxCell id="W7nRIWuPNDp_MP-GWuMY-24" value="EsecuzioneEsami" style="shape=rhombus;perimeter=rhombusPerimeter;whiteSpace=wrap;html=1;align=center;" vertex="1" parent="1">
          <mxGeometry x="977" y="647" width="138" height="60" as="geometry" />
        </mxCell>
        <mxCell id="W7nRIWuPNDp_MP-GWuMY-25" value="Indirizzo" style="ellipse;whiteSpace=wrap;html=1;align=center;" vertex="1" parent="1">
          <mxGeometry x="-928" y="9" width="100" height="28" as="geometry" />
        </mxCell>
        <mxCell id="W7nRIWuPNDp_MP-GWuMY-26" value="Nome" style="ellipse;whiteSpace=wrap;html=1;align=center;" vertex="1" parent="1">
          <mxGeometry x="-943" y="-123" width="100" height="28" as="geometry" />
        </mxCell>
        <mxCell id="W7nRIWuPNDp_MP-GWuMY-28" value="&lt;p style=&quot;margin: 0px 0px 0px 72px; text-indent: -72px; font-stretch: normal; line-height: normal; font-family: Times;&quot;&gt;OrarioApertura&lt;/p&gt;" style="ellipse;whiteSpace=wrap;html=1;align=center;" vertex="1" parent="1">
          <mxGeometry x="-1160" y="390" width="114" height="31" as="geometry" />
        </mxCell>
        <mxCell id="W7nRIWuPNDp_MP-GWuMY-31" value="" style="endArrow=none;html=1;rounded=0;entryX=0;entryY=0.75;entryDx=0;entryDy=0;exitX=0.81;exitY=0.099;exitDx=0;exitDy=0;exitPerimeter=0;" edge="1" parent="1">
          <mxGeometry relative="1" as="geometry">
            <mxPoint x="859.3400000000001" y="624.0690000000002" as="sourcePoint" />
            <mxPoint x="987" y="599" as="targetPoint" />
          </mxGeometry>
        </mxCell>
        <mxCell id="W7nRIWuPNDp_MP-GWuMY-40" value="SostituzioniPrimario" style="shape=rhombus;perimeter=rhombusPerimeter;whiteSpace=wrap;html=1;align=center;" vertex="1" parent="1">
          <mxGeometry x="318" y="-380" width="175" height="60" as="geometry" />
        </mxCell>
        <mxCell id="W7nRIWuPNDp_MP-GWuMY-54" value="" style="endArrow=none;html=1;rounded=0;" edge="1" parent="1">
          <mxGeometry relative="1" as="geometry">
            <mxPoint x="797" y="-630" as="sourcePoint" />
            <mxPoint x="796.5" y="-631" as="targetPoint" />
            <Array as="points" />
          </mxGeometry>
        </mxCell>
        <mxCell id="W7nRIWuPNDp_MP-GWuMY-56" value="" style="endArrow=none;html=1;rounded=0;fontSize=12;startSize=8;endSize=8;curved=1;exitX=0.5;exitY=0;exitDx=0;exitDy=0;" edge="1" parent="1">
          <mxGeometry relative="1" as="geometry">
            <mxPoint x="239" y="-480" as="sourcePoint" />
            <mxPoint x="239" y="-547" as="targetPoint" />
          </mxGeometry>
        </mxCell>
        <mxCell id="W7nRIWuPNDp_MP-GWuMY-58" value="&lt;p style=&quot;margin: 0px 0px 0px 72px; text-indent: -72px; font-stretch: normal; line-height: normal; font-family: Times;&quot;&gt;DataInizio&lt;/p&gt;" style="ellipse;whiteSpace=wrap;html=1;align=center;" vertex="1" parent="1">
          <mxGeometry x="576" y="-452" width="100" height="28" as="geometry" />
        </mxCell>
        <mxCell id="W7nRIWuPNDp_MP-GWuMY-59" value="&lt;p style=&quot;margin: 0px 0px 0px 72px; text-indent: -72px; font-stretch: normal; line-height: normal; font-family: Times;&quot;&gt;DataFine&lt;/p&gt;" style="ellipse;whiteSpace=wrap;html=1;align=center;" vertex="1" parent="1">
          <mxGeometry x="827" y="-458" width="100" height="28" as="geometry" />
        </mxCell>
        <mxCell id="W7nRIWuPNDp_MP-GWuMY-60" value="" style="endArrow=none;html=1;rounded=0;fontSize=12;startSize=8;endSize=8;curved=1;exitX=0.5;exitY=1;exitDx=0;exitDy=0;" edge="1" parent="1" source="W7nRIWuPNDp_MP-GWuMY-58">
          <mxGeometry relative="1" as="geometry">
            <mxPoint x="1093" y="-206" as="sourcePoint" />
            <mxPoint x="639" y="-384" as="targetPoint" />
          </mxGeometry>
        </mxCell>
        <mxCell id="W7nRIWuPNDp_MP-GWuMY-61" value="&lt;p style=&quot;margin: 0px 0px 0px 72px; text-indent: -72px; font-stretch: normal; line-height: normal; font-family: Times;&quot;&gt;&lt;b&gt;&amp;nbsp;IDSostituzione&lt;/b&gt;&lt;/p&gt;" style="ellipse;whiteSpace=wrap;html=1;align=center;fontStyle=4;" vertex="1" parent="1">
          <mxGeometry x="601" y="-244" width="123" height="32" as="geometry" />
        </mxCell>
        <mxCell id="W7nRIWuPNDp_MP-GWuMY-72" value="" style="ellipse;whiteSpace=wrap;html=1;aspect=fixed;strokeColor=#000000;fillColor=#000000;" vertex="1" parent="1">
          <mxGeometry x="698" y="-291" width="13" height="13" as="geometry" />
        </mxCell>
        <mxCell id="W7nRIWuPNDp_MP-GWuMY-74" value="&lt;p style=&quot;margin: 0px 0px 0px 72px; text-indent: -72px; font-stretch: normal; line-height: normal; font-family: Times;&quot;&gt;DataAssunzioneRuolo&lt;/p&gt;" style="ellipse;whiteSpace=wrap;html=1;align=center;" vertex="1" parent="1">
          <mxGeometry x="186" y="-708" width="159" height="28" as="geometry" />
        </mxCell>
        <mxCell id="W7nRIWuPNDp_MP-GWuMY-82" value="" style="shape=flexArrow;endArrow=classic;html=1;rounded=0;" edge="1" parent="1">
          <mxGeometry width="50" height="50" relative="1" as="geometry">
            <mxPoint x="74.04" y="-480" as="sourcePoint" />
            <mxPoint x="74.46188976377975" y="-386" as="targetPoint" />
          </mxGeometry>
        </mxCell>
        <mxCell id="W7nRIWuPNDp_MP-GWuMY-83" value="" style="endArrow=none;html=1;rounded=0;fontSize=12;startSize=8;endSize=8;curved=1;" edge="1" parent="1">
          <mxGeometry relative="1" as="geometry">
            <mxPoint x="-82.81" y="-480.03" as="sourcePoint" />
            <mxPoint x="240.19" y="-480.03" as="targetPoint" />
          </mxGeometry>
        </mxCell>
        <mxCell id="W7nRIWuPNDp_MP-GWuMY-87" value="" style="endArrow=none;html=1;rounded=0;fontSize=12;startSize=8;endSize=8;curved=1;" edge="1" parent="1">
          <mxGeometry relative="1" as="geometry">
            <mxPoint x="858" y="-431" as="sourcePoint" />
            <mxPoint x="814.9958823529414" y="-383" as="targetPoint" />
          </mxGeometry>
        </mxCell>
        <mxCell id="W7nRIWuPNDp_MP-GWuMY-92" value="" style="endArrow=none;html=1;rounded=0;" edge="1" parent="1">
          <mxGeometry width="50" height="50" relative="1" as="geometry">
            <mxPoint x="565" y="-381" as="sourcePoint" />
            <mxPoint x="698" y="-286" as="targetPoint" />
            <Array as="points">
              <mxPoint x="565" y="-286" />
            </Array>
          </mxGeometry>
        </mxCell>
        <mxCell id="W7nRIWuPNDp_MP-GWuMY-94" value="" style="endArrow=none;html=1;rounded=0;fontSize=12;startSize=8;endSize=8;curved=1;entryX=0.378;entryY=1.053;entryDx=0;entryDy=0;entryPerimeter=0;" edge="1" parent="1">
          <mxGeometry relative="1" as="geometry">
            <mxPoint x="659" y="-244" as="sourcePoint" />
            <mxPoint x="658.8960000000002" y="-327.8800000000001" as="targetPoint" />
          </mxGeometry>
        </mxCell>
        <mxCell id="W7nRIWuPNDp_MP-GWuMY-98" value="&lt;p style=&quot;margin: 0px 0px 0px 72px; text-indent: -72px; font-stretch: normal; line-height: normal; font-family: Times;&quot;&gt;&lt;b&gt;CodiceRersonale&lt;/b&gt;&lt;/p&gt;" style="ellipse;whiteSpace=wrap;html=1;align=center;fontStyle=4;" vertex="1" parent="1">
          <mxGeometry x="-237.99999999999994" y="-298" width="123" height="32" as="geometry" />
        </mxCell>
        <mxCell id="W7nRIWuPNDp_MP-GWuMY-99" value="&lt;p style=&quot;margin: 0px 0px 0px 72px; text-indent: -72px; font-stretch: normal; line-height: normal; font-family: Times;&quot;&gt;Nome&lt;/p&gt;" style="ellipse;whiteSpace=wrap;html=1;align=center;" vertex="1" parent="1">
          <mxGeometry x="-69" y="-450" width="100" height="28" as="geometry" />
        </mxCell>
        <mxCell id="W7nRIWuPNDp_MP-GWuMY-100" value="&lt;p style=&quot;margin: 0px 0px 0px 72px; text-indent: -72px; font-stretch: normal; line-height: normal; font-family: Times;&quot;&gt;Cognome&lt;/p&gt;" style="ellipse;whiteSpace=wrap;html=1;align=center;" vertex="1" parent="1">
          <mxGeometry x="-164.38" y="-419" width="100" height="28" as="geometry" />
        </mxCell>
        <mxCell id="W7nRIWuPNDp_MP-GWuMY-101" value="&lt;p style=&quot;margin: 0px 0px 0px 72px; text-indent: -72px; font-stretch: normal; line-height: normal; font-family: Times;&quot;&gt;Tipo&lt;/p&gt;" style="ellipse;whiteSpace=wrap;html=1;align=center;" vertex="1" parent="1">
          <mxGeometry x="138" y="-441" width="100" height="28" as="geometry" />
        </mxCell>
        <mxCell id="W7nRIWuPNDp_MP-GWuMY-102" value="&lt;p style=&quot;margin: 0px 0px 0px 72px; text-indent: -72px; font-stretch: normal; line-height: normal; font-family: Times;&quot;&gt;AnzianitàServizio&lt;/p&gt;" style="ellipse;whiteSpace=wrap;html=1;align=center;" vertex="1" parent="1">
          <mxGeometry x="274" y="-462" width="159" height="28" as="geometry" />
        </mxCell>
        <mxCell id="W7nRIWuPNDp_MP-GWuMY-103" value="" style="endArrow=none;html=1;rounded=0;fontSize=12;startSize=8;endSize=8;curved=1;exitX=0.5;exitY=0;exitDx=0;exitDy=0;" edge="1" parent="1">
          <mxGeometry relative="1" as="geometry">
            <mxPoint x="-83" y="-481" as="sourcePoint" />
            <mxPoint x="-82.6400000000001" y="-547" as="targetPoint" />
          </mxGeometry>
        </mxCell>
        <mxCell id="W7nRIWuPNDp_MP-GWuMY-109" value="" style="endArrow=none;html=1;rounded=0;" edge="1" parent="1">
          <mxGeometry relative="1" as="geometry">
            <mxPoint x="-88" y="-343" as="sourcePoint" />
            <mxPoint x="120" y="-268" as="targetPoint" />
            <Array as="points">
              <mxPoint x="-88" y="-268" />
            </Array>
          </mxGeometry>
        </mxCell>
        <mxCell id="W7nRIWuPNDp_MP-GWuMY-114" value="&lt;p style=&quot;margin: 0px 0px 0px 72px; text-indent: -72px; font-stretch: normal; line-height: normal; font-family: Times;&quot;&gt;Specializzazioni&lt;/p&gt;" style="ellipse;whiteSpace=wrap;html=1;align=center;" vertex="1" parent="1">
          <mxGeometry x="-211.18" y="-708" width="159" height="28" as="geometry" />
        </mxCell>
        <mxCell id="W7nRIWuPNDp_MP-GWuMY-117" value="PrescrizioniEsame" style="shape=rhombus;perimeter=rhombusPerimeter;whiteSpace=wrap;html=1;align=center;" vertex="1" parent="1">
          <mxGeometry x="1176" y="745" width="138" height="60" as="geometry" />
        </mxCell>
        <mxCell id="W7nRIWuPNDp_MP-GWuMY-119" value="" style="endArrow=none;html=1;rounded=0;entryX=0.138;entryY=0.032;entryDx=0;entryDy=0;entryPerimeter=0;" edge="1" parent="1" target="nYtGBeRSti1WLGGYR-Tt-8">
          <mxGeometry relative="1" as="geometry">
            <mxPoint x="933" y="528" as="sourcePoint" />
            <mxPoint x="1004" y="528.38" as="targetPoint" />
          </mxGeometry>
        </mxCell>
        <mxCell id="W7nRIWuPNDp_MP-GWuMY-122" value="Ospedale" style="rounded=1;arcSize=10;whiteSpace=wrap;html=1;align=center;" vertex="1" parent="1">
          <mxGeometry x="-793" y="-88" width="253.5" height="66" as="geometry" />
        </mxCell>
        <mxCell id="W7nRIWuPNDp_MP-GWuMY-123" value="Laboratori/Ambulatori" style="rounded=1;arcSize=10;whiteSpace=wrap;html=1;align=center;" vertex="1" parent="1">
          <mxGeometry x="-790.94" y="210" width="253.5" height="66" as="geometry" />
        </mxCell>
        <mxCell id="W7nRIWuPNDp_MP-GWuMY-126" value="TurniProntoSoccorso" style="shape=rhombus;perimeter=rhombusPerimeter;whiteSpace=wrap;html=1;align=center;" vertex="1" parent="1">
          <mxGeometry x="-795.06" y="-234" width="257.62" height="60" as="geometry" />
        </mxCell>
        <mxCell id="W7nRIWuPNDp_MP-GWuMY-127" value="" style="endArrow=none;html=1;rounded=0;entryX=0.138;entryY=0.032;entryDx=0;entryDy=0;entryPerimeter=0;exitX=1;exitY=1;exitDx=0;exitDy=0;" edge="1" parent="1" source="W7nRIWuPNDp_MP-GWuMY-26">
          <mxGeometry relative="1" as="geometry">
            <mxPoint x="-843" y="-109" as="sourcePoint" />
            <mxPoint x="-792" y="-77" as="targetPoint" />
          </mxGeometry>
        </mxCell>
        <mxCell id="W7nRIWuPNDp_MP-GWuMY-128" value="Laboratori/Ospedale" style="shape=rhombus;perimeter=rhombusPerimeter;whiteSpace=wrap;html=1;align=center;" vertex="1" parent="1">
          <mxGeometry x="-795.06" y="64" width="257.62" height="60" as="geometry" />
        </mxCell>
        <mxCell id="W7nRIWuPNDp_MP-GWuMY-129" value="" style="shape=flexArrow;endArrow=classic;html=1;rounded=0;labelBackgroundColor=#000000;fillColor=#000000;" edge="1" parent="1">
          <mxGeometry width="50" height="50" relative="1" as="geometry">
            <mxPoint x="-664.72" y="383" as="sourcePoint" />
            <mxPoint x="-663.72" y="276" as="targetPoint" />
          </mxGeometry>
        </mxCell>
        <mxCell id="W7nRIWuPNDp_MP-GWuMY-130" value="" style="endArrow=none;html=1;rounded=0;fontSize=12;startSize=8;endSize=8;curved=1;entryX=0.5;entryY=1;entryDx=0;entryDy=0;exitX=0.5;exitY=0;exitDx=0;exitDy=0;" edge="1" parent="1">
          <mxGeometry relative="1" as="geometry">
            <mxPoint x="-666.78" y="64" as="sourcePoint" />
            <mxPoint x="-666.78" y="-22" as="targetPoint" />
          </mxGeometry>
        </mxCell>
        <mxCell id="W7nRIWuPNDp_MP-GWuMY-131" value="1" style="resizable=0;html=1;whiteSpace=wrap;align=right;verticalAlign=bottom;" connectable="0" vertex="1" parent="W7nRIWuPNDp_MP-GWuMY-130">
          <mxGeometry x="1" relative="1" as="geometry">
            <mxPoint x="16" y="74" as="offset" />
          </mxGeometry>
        </mxCell>
        <mxCell id="W7nRIWuPNDp_MP-GWuMY-132" value="" style="endArrow=none;html=1;rounded=0;fontSize=12;startSize=8;endSize=8;curved=1;entryX=0.5;entryY=0;entryDx=0;entryDy=0;" edge="1" parent="1">
          <mxGeometry relative="1" as="geometry">
            <mxPoint x="-666.78" y="124" as="sourcePoint" />
            <mxPoint x="-666.78" y="209" as="targetPoint" />
          </mxGeometry>
        </mxCell>
        <mxCell id="W7nRIWuPNDp_MP-GWuMY-133" value="N" style="resizable=0;html=1;whiteSpace=wrap;align=right;verticalAlign=bottom;" connectable="0" vertex="1" parent="W7nRIWuPNDp_MP-GWuMY-132">
          <mxGeometry x="1" relative="1" as="geometry">
            <mxPoint x="-8" y="-67" as="offset" />
          </mxGeometry>
        </mxCell>
        <mxCell id="W7nRIWuPNDp_MP-GWuMY-134" value="Esterni" style="rounded=1;arcSize=10;whiteSpace=wrap;html=1;align=center;" vertex="1" parent="1">
          <mxGeometry x="-1007" y="442" width="253.5" height="66" as="geometry" />
        </mxCell>
        <mxCell id="W7nRIWuPNDp_MP-GWuMY-135" value="Interni" style="rounded=1;arcSize=10;whiteSpace=wrap;html=1;align=center;" vertex="1" parent="1">
          <mxGeometry x="-584" y="442" width="253.5" height="66" as="geometry" />
        </mxCell>
        <mxCell id="W7nRIWuPNDp_MP-GWuMY-136" value="" style="endArrow=none;html=1;rounded=0;" edge="1" parent="1">
          <mxGeometry relative="1" as="geometry">
            <mxPoint x="-885" y="383" as="sourcePoint" />
            <mxPoint x="-463" y="383" as="targetPoint" />
          </mxGeometry>
        </mxCell>
        <mxCell id="W7nRIWuPNDp_MP-GWuMY-137" value="" style="endArrow=none;html=1;rounded=0;fontSize=12;startSize=8;endSize=8;curved=1;entryX=0.5;entryY=0;entryDx=0;entryDy=0;" edge="1" parent="1">
          <mxGeometry relative="1" as="geometry">
            <mxPoint x="-883" y="382" as="sourcePoint" />
            <mxPoint x="-883" y="442" as="targetPoint" />
          </mxGeometry>
        </mxCell>
        <mxCell id="W7nRIWuPNDp_MP-GWuMY-139" value="" style="endArrow=none;html=1;rounded=0;fontSize=12;startSize=8;endSize=8;curved=1;entryX=0.5;entryY=0;entryDx=0;entryDy=0;" edge="1" parent="1">
          <mxGeometry relative="1" as="geometry">
            <mxPoint x="-463" y="382" as="sourcePoint" />
            <mxPoint x="-463" y="442" as="targetPoint" />
          </mxGeometry>
        </mxCell>
        <mxCell id="W7nRIWuPNDp_MP-GWuMY-140" value="Stanza" style="rounded=1;arcSize=10;whiteSpace=wrap;html=1;align=center;" vertex="1" parent="1">
          <mxGeometry x="-50.120000000000005" y="207" width="253.5" height="66" as="geometry" />
        </mxCell>
        <mxCell id="W7nRIWuPNDp_MP-GWuMY-141" value="Reparto" style="rounded=1;arcSize=10;whiteSpace=wrap;html=1;align=center;" vertex="1" parent="1">
          <mxGeometry x="-46" y="-91" width="253.5" height="66" as="geometry" />
        </mxCell>
        <mxCell id="W7nRIWuPNDp_MP-GWuMY-143" value="" style="endArrow=none;html=1;rounded=0;fontSize=12;startSize=8;endSize=8;curved=1;entryX=0;entryY=0.5;entryDx=0;entryDy=0;" edge="1" parent="1" target="W7nRIWuPNDp_MP-GWuMY-161">
          <mxGeometry relative="1" as="geometry">
            <mxPoint x="-330.5" y="474.37" as="sourcePoint" />
            <mxPoint x="-213" y="475" as="targetPoint" />
          </mxGeometry>
        </mxCell>
        <mxCell id="W7nRIWuPNDp_MP-GWuMY-144" value="N" style="resizable=0;html=1;whiteSpace=wrap;align=right;verticalAlign=bottom;" connectable="0" vertex="1" parent="W7nRIWuPNDp_MP-GWuMY-143">
          <mxGeometry x="1" relative="1" as="geometry">
            <mxPoint x="-4" y="-4" as="offset" />
          </mxGeometry>
        </mxCell>
        <mxCell id="W7nRIWuPNDp_MP-GWuMY-145" value="Numero" style="ellipse;whiteSpace=wrap;html=1;align=center;" vertex="1" parent="1">
          <mxGeometry x="210" y="315" width="100" height="28" as="geometry" />
        </mxCell>
        <mxCell id="W7nRIWuPNDp_MP-GWuMY-146" value="NumeroLetti" style="ellipse;whiteSpace=wrap;html=1;align=center;" vertex="1" parent="1">
          <mxGeometry x="178" y="140" width="100" height="28" as="geometry" />
        </mxCell>
        <mxCell id="W7nRIWuPNDp_MP-GWuMY-148" value="" style="endArrow=none;html=1;rounded=0;fontSize=12;startSize=8;endSize=8;curved=1;exitX=0.819;exitY=0.004;exitDx=0;exitDy=0;exitPerimeter=0;entryX=0;entryY=1;entryDx=0;entryDy=0;" edge="1" parent="1" source="W7nRIWuPNDp_MP-GWuMY-140" target="W7nRIWuPNDp_MP-GWuMY-146">
          <mxGeometry relative="1" as="geometry">
            <mxPoint x="385.5814999999998" y="445.00199999999995" as="sourcePoint" />
            <mxPoint x="115" y="140" as="targetPoint" />
          </mxGeometry>
        </mxCell>
        <mxCell id="W7nRIWuPNDp_MP-GWuMY-155" value="&lt;p style=&quot;margin: 0px 0px 0px 72px; text-indent: -72px; font-stretch: normal; line-height: normal; font-family: Times;&quot;&gt;NumTelefono&lt;/p&gt;" style="ellipse;whiteSpace=wrap;html=1;align=center;" vertex="1" parent="1">
          <mxGeometry x="-1210" y="467.5" width="114" height="31" as="geometry" />
        </mxCell>
        <mxCell id="W7nRIWuPNDp_MP-GWuMY-156" value="&lt;p style=&quot;margin: 0px 0px 0px 72px; text-indent: -72px; font-stretch: normal; line-height: normal; font-family: Times;&quot;&gt;Indirizzo&lt;/p&gt;" style="ellipse;whiteSpace=wrap;html=1;align=center;" vertex="1" parent="1">
          <mxGeometry x="-1131" y="551" width="114" height="31" as="geometry" />
        </mxCell>
        <mxCell id="W7nRIWuPNDp_MP-GWuMY-157" value="" style="endArrow=none;html=1;rounded=0;entryX=0.956;entryY=0.919;entryDx=0;entryDy=0;entryPerimeter=0;" edge="1" parent="1" source="W7nRIWuPNDp_MP-GWuMY-134" target="W7nRIWuPNDp_MP-GWuMY-28">
          <mxGeometry relative="1" as="geometry">
            <mxPoint x="-946" y="370" as="sourcePoint" />
            <mxPoint x="-1046" y="405" as="targetPoint" />
          </mxGeometry>
        </mxCell>
        <mxCell id="W7nRIWuPNDp_MP-GWuMY-158" value="" style="endArrow=none;html=1;rounded=0;entryX=1;entryY=0;entryDx=0;entryDy=0;" edge="1" parent="1">
          <mxGeometry relative="1" as="geometry">
            <mxPoint x="-1008" y="483" as="sourcePoint" />
            <mxPoint x="-1096" y="483" as="targetPoint" />
          </mxGeometry>
        </mxCell>
        <mxCell id="W7nRIWuPNDp_MP-GWuMY-159" value="" style="endArrow=none;html=1;rounded=0;entryX=1;entryY=0;entryDx=0;entryDy=0;exitX=0;exitY=1;exitDx=0;exitDy=0;" edge="1" parent="1" source="W7nRIWuPNDp_MP-GWuMY-134">
          <mxGeometry relative="1" as="geometry">
            <mxPoint x="-981" y="551" as="sourcePoint" />
            <mxPoint x="-1069" y="551" as="targetPoint" />
          </mxGeometry>
        </mxCell>
        <mxCell id="W7nRIWuPNDp_MP-GWuMY-161" value="StanzaInterna" style="shape=rhombus;perimeter=rhombusPerimeter;whiteSpace=wrap;html=1;align=center;" vertex="1" parent="1">
          <mxGeometry x="-181" y="445" width="257.62" height="60" as="geometry" />
        </mxCell>
        <mxCell id="W7nRIWuPNDp_MP-GWuMY-162" value="Piano" style="ellipse;whiteSpace=wrap;html=1;align=center;" vertex="1" parent="1">
          <mxGeometry x="-446" y="582" width="100" height="28" as="geometry" />
        </mxCell>
        <mxCell id="W7nRIWuPNDp_MP-GWuMY-163" value="" style="endArrow=none;html=1;rounded=0;fontSize=12;startSize=8;endSize=8;curved=1;" edge="1" parent="1">
          <mxGeometry relative="1" as="geometry">
            <mxPoint x="-404" y="507" as="sourcePoint" />
            <mxPoint x="-404" y="580" as="targetPoint" />
          </mxGeometry>
        </mxCell>
        <mxCell id="W7nRIWuPNDp_MP-GWuMY-164" value="" style="endArrow=none;html=1;rounded=0;fontSize=12;startSize=8;endSize=8;curved=1;entryX=0.5;entryY=1;entryDx=0;entryDy=0;" edge="1" parent="1" target="W7nRIWuPNDp_MP-GWuMY-140">
          <mxGeometry relative="1" as="geometry">
            <mxPoint x="77" y="476" as="sourcePoint" />
            <mxPoint x="102.61999999999773" y="474.37" as="targetPoint" />
          </mxGeometry>
        </mxCell>
        <mxCell id="W7nRIWuPNDp_MP-GWuMY-169" value="StanzaReparto" style="shape=rhombus;perimeter=rhombusPerimeter;whiteSpace=wrap;html=1;align=center;" vertex="1" parent="1">
          <mxGeometry x="-50.11999999999995" y="61" width="257.62" height="60" as="geometry" />
        </mxCell>
        <mxCell id="W7nRIWuPNDp_MP-GWuMY-170" value="" style="endArrow=none;html=1;rounded=0;fontSize=12;startSize=8;endSize=8;curved=1;entryX=0.5;entryY=1;entryDx=0;entryDy=0;exitX=0.5;exitY=0;exitDx=0;exitDy=0;" edge="1" parent="1">
          <mxGeometry relative="1" as="geometry">
            <mxPoint x="78.16000000000008" y="61" as="sourcePoint" />
            <mxPoint x="78.16000000000008" y="-25" as="targetPoint" />
          </mxGeometry>
        </mxCell>
        <mxCell id="W7nRIWuPNDp_MP-GWuMY-171" value="N" style="resizable=0;html=1;whiteSpace=wrap;align=right;verticalAlign=bottom;" connectable="0" vertex="1" parent="W7nRIWuPNDp_MP-GWuMY-170">
          <mxGeometry x="1" relative="1" as="geometry">
            <mxPoint x="15" y="81" as="offset" />
          </mxGeometry>
        </mxCell>
        <mxCell id="W7nRIWuPNDp_MP-GWuMY-172" value="" style="endArrow=none;html=1;rounded=0;fontSize=12;startSize=8;endSize=8;curved=1;entryX=0.5;entryY=0;entryDx=0;entryDy=0;" edge="1" parent="1">
          <mxGeometry relative="1" as="geometry">
            <mxPoint x="78.16000000000003" y="121" as="sourcePoint" />
            <mxPoint x="78.16000000000003" y="206" as="targetPoint" />
          </mxGeometry>
        </mxCell>
        <mxCell id="W7nRIWuPNDp_MP-GWuMY-173" value="1" style="resizable=0;html=1;whiteSpace=wrap;align=right;verticalAlign=bottom;" connectable="0" vertex="1" parent="W7nRIWuPNDp_MP-GWuMY-172">
          <mxGeometry x="1" relative="1" as="geometry">
            <mxPoint x="-8" y="-67" as="offset" />
          </mxGeometry>
        </mxCell>
        <mxCell id="W7nRIWuPNDp_MP-GWuMY-176" value="GestioneReparti" style="shape=rhombus;perimeter=rhombusPerimeter;whiteSpace=wrap;html=1;align=center;" vertex="1" parent="1">
          <mxGeometry x="-421.99999999999994" y="-85" width="257.62" height="60" as="geometry" />
        </mxCell>
        <mxCell id="W7nRIWuPNDp_MP-GWuMY-177" value="" style="endArrow=none;html=1;rounded=0;fontSize=12;startSize=8;endSize=8;curved=1;" edge="1" parent="1">
          <mxGeometry relative="1" as="geometry">
            <mxPoint x="-539.5" y="-55.620000000000005" as="sourcePoint" />
            <mxPoint x="-422" y="-54.99000000000001" as="targetPoint" />
          </mxGeometry>
        </mxCell>
        <mxCell id="W7nRIWuPNDp_MP-GWuMY-178" value="N" style="resizable=0;html=1;whiteSpace=wrap;align=right;verticalAlign=bottom;" connectable="0" vertex="1" parent="W7nRIWuPNDp_MP-GWuMY-177">
          <mxGeometry x="1" relative="1" as="geometry">
            <mxPoint x="-4" y="-4" as="offset" />
          </mxGeometry>
        </mxCell>
        <mxCell id="W7nRIWuPNDp_MP-GWuMY-179" value="" style="endArrow=none;html=1;rounded=0;fontSize=12;startSize=8;endSize=8;curved=1;" edge="1" parent="1">
          <mxGeometry relative="1" as="geometry">
            <mxPoint x="-164.38" y="-55.620000000000005" as="sourcePoint" />
            <mxPoint x="-46.879999999999995" y="-54.99000000000001" as="targetPoint" />
          </mxGeometry>
        </mxCell>
        <mxCell id="W7nRIWuPNDp_MP-GWuMY-180" value="N" style="resizable=0;html=1;whiteSpace=wrap;align=right;verticalAlign=bottom;" connectable="0" vertex="1" parent="W7nRIWuPNDp_MP-GWuMY-179">
          <mxGeometry x="1" relative="1" as="geometry">
            <mxPoint x="-102" y="-3" as="offset" />
          </mxGeometry>
        </mxCell>
        <mxCell id="W7nRIWuPNDp_MP-GWuMY-181" value="" style="endArrow=none;html=1;rounded=0;fontSize=12;startSize=8;endSize=8;curved=1;exitX=0.819;exitY=0.004;exitDx=0;exitDy=0;exitPerimeter=0;" edge="1" parent="1">
          <mxGeometry relative="1" as="geometry">
            <mxPoint x="175" y="273" as="sourcePoint" />
            <mxPoint x="210" y="326" as="targetPoint" />
          </mxGeometry>
        </mxCell>
        <mxCell id="W7nRIWuPNDp_MP-GWuMY-183" value="Data" style="ellipse;whiteSpace=wrap;html=1;align=center;" vertex="1" parent="1">
          <mxGeometry x="-964" y="-367" width="100" height="28" as="geometry" />
        </mxCell>
        <mxCell id="W7nRIWuPNDp_MP-GWuMY-184" value="OraFine" style="ellipse;whiteSpace=wrap;html=1;align=center;" vertex="1" parent="1">
          <mxGeometry x="-875" y="-471" width="100" height="28" as="geometry" />
        </mxCell>
        <mxCell id="W7nRIWuPNDp_MP-GWuMY-185" value="OraInizio" style="ellipse;whiteSpace=wrap;html=1;align=center;" vertex="1" parent="1">
          <mxGeometry x="-716.25" y="-499" width="100" height="28" as="geometry" />
        </mxCell>
        <mxCell id="W7nRIWuPNDp_MP-GWuMY-187" value="" style="endArrow=none;html=1;rounded=0;fontSize=12;startSize=8;endSize=8;curved=1;entryX=0.5;entryY=1;entryDx=0;entryDy=0;exitX=0.5;exitY=0;exitDx=0;exitDy=0;" edge="1" parent="1">
          <mxGeometry relative="1" as="geometry">
            <mxPoint x="-666.78" y="-386" as="sourcePoint" />
            <mxPoint x="-666.78" y="-472" as="targetPoint" />
          </mxGeometry>
        </mxCell>
        <mxCell id="W7nRIWuPNDp_MP-GWuMY-189" value="" style="endArrow=none;html=1;rounded=0;fontSize=12;startSize=8;endSize=8;curved=1;exitX=0.057;exitY=0.001;exitDx=0;exitDy=0;exitPerimeter=0;" edge="1" parent="1" source="nYtGBeRSti1WLGGYR-Tt-14">
          <mxGeometry relative="1" as="geometry">
            <mxPoint x="-825.53" y="-360" as="sourcePoint" />
            <mxPoint x="-826" y="-443" as="targetPoint" />
          </mxGeometry>
        </mxCell>
        <mxCell id="W7nRIWuPNDp_MP-GWuMY-190" value="" style="endArrow=none;html=1;rounded=0;fontSize=12;startSize=8;endSize=8;curved=1;" edge="1" parent="1">
          <mxGeometry relative="1" as="geometry">
            <mxPoint x="-793" y="-353.53" as="sourcePoint" />
            <mxPoint x="-863" y="-353.53" as="targetPoint" />
          </mxGeometry>
        </mxCell>
        <mxCell id="W7nRIWuPNDp_MP-GWuMY-192" value="&lt;p style=&quot;margin: 0px 0px 0px 72px; text-indent: -72px; font-stretch: normal; line-height: normal; font-family: Times;&quot;&gt;&lt;b&gt;CodiceOspedale&lt;/b&gt;&lt;/p&gt;" style="ellipse;whiteSpace=wrap;html=1;align=center;fontStyle=4;" vertex="1" parent="1">
          <mxGeometry x="-450.5" y="-486" width="109" height="38" as="geometry" />
        </mxCell>
        <mxCell id="W7nRIWuPNDp_MP-GWuMY-193" value="" style="endArrow=none;html=1;rounded=0;fontSize=12;startSize=8;endSize=8;curved=1;exitX=0.057;exitY=0.001;exitDx=0;exitDy=0;exitPerimeter=0;" edge="1" parent="1">
          <mxGeometry relative="1" as="geometry">
            <mxPoint x="-555" y="-386" as="sourcePoint" />
            <mxPoint x="-419" y="-449" as="targetPoint" />
          </mxGeometry>
        </mxCell>
        <mxCell id="W7nRIWuPNDp_MP-GWuMY-194" value="Personale" style="rounded=1;arcSize=10;whiteSpace=wrap;html=1;align=center;" vertex="1" parent="1">
          <mxGeometry x="-52.18" y="-386" width="253.5" height="66" as="geometry" />
        </mxCell>
        <mxCell id="W7nRIWuPNDp_MP-GWuMY-195" value="" style="endArrow=none;html=1;rounded=0;fontSize=12;startSize=8;endSize=8;curved=1;entryX=0.5;entryY=0;entryDx=0;entryDy=0;" edge="1" parent="1">
          <mxGeometry relative="1" as="geometry">
            <mxPoint x="75.57000000000005" y="-176" as="sourcePoint" />
            <mxPoint x="75.57000000000005" y="-91" as="targetPoint" />
          </mxGeometry>
        </mxCell>
        <mxCell id="W7nRIWuPNDp_MP-GWuMY-196" value="N" style="resizable=0;html=1;whiteSpace=wrap;align=right;verticalAlign=bottom;" connectable="0" vertex="1" parent="W7nRIWuPNDp_MP-GWuMY-195">
          <mxGeometry x="1" relative="1" as="geometry">
            <mxPoint x="-8" y="-67" as="offset" />
          </mxGeometry>
        </mxCell>
        <mxCell id="W7nRIWuPNDp_MP-GWuMY-197" value="TurniProntoSoccorso" style="shape=rhombus;perimeter=rhombusPerimeter;whiteSpace=wrap;html=1;align=center;" vertex="1" parent="1">
          <mxGeometry x="-52.17999999999995" y="-234" width="257.62" height="60" as="geometry" />
        </mxCell>
        <mxCell id="W7nRIWuPNDp_MP-GWuMY-198" value="" style="endArrow=none;html=1;rounded=0;fontSize=12;startSize=8;endSize=8;curved=1;entryX=0.5;entryY=1;entryDx=0;entryDy=0;exitX=0.5;exitY=0;exitDx=0;exitDy=0;" edge="1" parent="1">
          <mxGeometry relative="1" as="geometry">
            <mxPoint x="75.57" y="-234" as="sourcePoint" />
            <mxPoint x="75.57" y="-320" as="targetPoint" />
          </mxGeometry>
        </mxCell>
        <mxCell id="W7nRIWuPNDp_MP-GWuMY-199" value="1" style="resizable=0;html=1;whiteSpace=wrap;align=right;verticalAlign=bottom;" connectable="0" vertex="1" parent="W7nRIWuPNDp_MP-GWuMY-198">
          <mxGeometry x="1" relative="1" as="geometry">
            <mxPoint x="16" y="74" as="offset" />
          </mxGeometry>
        </mxCell>
        <mxCell id="W7nRIWuPNDp_MP-GWuMY-200" value="GestioneReparti" style="shape=rhombus;perimeter=rhombusPerimeter;whiteSpace=wrap;html=1;align=center;" vertex="1" parent="1">
          <mxGeometry x="-421.99999999999994" y="-380" width="257.62" height="60" as="geometry" />
        </mxCell>
        <mxCell id="W7nRIWuPNDp_MP-GWuMY-201" value="" style="endArrow=none;html=1;rounded=0;fontSize=12;startSize=8;endSize=8;curved=1;" edge="1" parent="1">
          <mxGeometry relative="1" as="geometry">
            <mxPoint x="-169.68" y="-350.53000000000003" as="sourcePoint" />
            <mxPoint x="-52.17999999999999" y="-349.90000000000003" as="targetPoint" />
          </mxGeometry>
        </mxCell>
        <mxCell id="W7nRIWuPNDp_MP-GWuMY-202" value="N" style="resizable=0;html=1;whiteSpace=wrap;align=right;verticalAlign=bottom;" connectable="0" vertex="1" parent="W7nRIWuPNDp_MP-GWuMY-201">
          <mxGeometry x="1" relative="1" as="geometry">
            <mxPoint x="-102" y="-3" as="offset" />
          </mxGeometry>
        </mxCell>
        <mxCell id="W7nRIWuPNDp_MP-GWuMY-203" value="" style="endArrow=none;html=1;rounded=0;fontSize=12;startSize=8;endSize=8;curved=1;" edge="1" parent="1">
          <mxGeometry relative="1" as="geometry">
            <mxPoint x="-539.5" y="-350.53000000000003" as="sourcePoint" />
            <mxPoint x="-422" y="-349.90000000000003" as="targetPoint" />
          </mxGeometry>
        </mxCell>
        <mxCell id="W7nRIWuPNDp_MP-GWuMY-204" value="N" style="resizable=0;html=1;whiteSpace=wrap;align=right;verticalAlign=bottom;" connectable="0" vertex="1" parent="W7nRIWuPNDp_MP-GWuMY-203">
          <mxGeometry x="1" relative="1" as="geometry">
            <mxPoint x="-4" y="-4" as="offset" />
          </mxGeometry>
        </mxCell>
        <mxCell id="W7nRIWuPNDp_MP-GWuMY-207" value="" style="endArrow=none;html=1;rounded=0;" edge="1" parent="1">
          <mxGeometry relative="1" as="geometry">
            <mxPoint x="-730" y="-271" as="sourcePoint" />
            <mxPoint x="-503" y="-475" as="targetPoint" />
            <Array as="points">
              <mxPoint x="-503" y="-271" />
            </Array>
          </mxGeometry>
        </mxCell>
        <mxCell id="W7nRIWuPNDp_MP-GWuMY-208" value="" style="ellipse;whiteSpace=wrap;html=1;aspect=fixed;strokeColor=#000000;fillColor=#000000;" vertex="1" parent="1">
          <mxGeometry x="-510" y="-486" width="13" height="13" as="geometry" />
        </mxCell>
        <mxCell id="W7nRIWuPNDp_MP-GWuMY-209" value="Primario" style="rounded=1;arcSize=10;whiteSpace=wrap;html=1;align=center;" vertex="1" parent="1">
          <mxGeometry x="-197" y="-613" width="253.5" height="66" as="geometry" />
        </mxCell>
        <mxCell id="W7nRIWuPNDp_MP-GWuMY-210" value="Vice Primario" style="rounded=1;arcSize=10;whiteSpace=wrap;html=1;align=center;" vertex="1" parent="1">
          <mxGeometry x="87" y="-613" width="253.5" height="66" as="geometry" />
        </mxCell>
        <mxCell id="W7nRIWuPNDp_MP-GWuMY-211" value="" style="endArrow=none;html=1;rounded=0;fontSize=12;startSize=8;endSize=8;curved=1;exitX=0.5;exitY=0;exitDx=0;exitDy=0;" edge="1" parent="1">
          <mxGeometry relative="1" as="geometry">
            <mxPoint x="259.47" y="-613" as="sourcePoint" />
            <mxPoint x="259.47" y="-680" as="targetPoint" />
          </mxGeometry>
        </mxCell>
        <mxCell id="W7nRIWuPNDp_MP-GWuMY-212" value="" style="endArrow=none;html=1;rounded=0;fontSize=12;startSize=8;endSize=8;curved=1;exitX=0.5;exitY=0;exitDx=0;exitDy=0;" edge="1" parent="1">
          <mxGeometry relative="1" as="geometry">
            <mxPoint x="-143" y="-613" as="sourcePoint" />
            <mxPoint x="-143" y="-680" as="targetPoint" />
          </mxGeometry>
        </mxCell>
        <mxCell id="W7nRIWuPNDp_MP-GWuMY-214" value="" style="endArrow=none;html=1;rounded=0;fontSize=12;startSize=8;endSize=8;curved=1;" edge="1" parent="1">
          <mxGeometry relative="1" as="geometry">
            <mxPoint x="-17" y="-386" as="sourcePoint" />
            <mxPoint x="-16.6400000000001" y="-422" as="targetPoint" />
          </mxGeometry>
        </mxCell>
        <mxCell id="W7nRIWuPNDp_MP-GWuMY-215" value="" style="endArrow=none;html=1;rounded=0;fontSize=12;startSize=8;endSize=8;curved=1;" edge="1" parent="1">
          <mxGeometry relative="1" as="geometry">
            <mxPoint x="-54" y="-364" as="sourcePoint" />
            <mxPoint x="-102.6400000000001" y="-391" as="targetPoint" />
          </mxGeometry>
        </mxCell>
        <mxCell id="W7nRIWuPNDp_MP-GWuMY-216" value="" style="endArrow=none;html=1;rounded=0;fontSize=12;startSize=8;endSize=8;curved=1;exitX=0.924;exitY=0.024;exitDx=0;exitDy=0;exitPerimeter=0;" edge="1" parent="1">
          <mxGeometry relative="1" as="geometry">
            <mxPoint x="164.69400000000007" y="-385.99600000000004" as="sourcePoint" />
            <mxPoint x="177.9999999999999" y="-413.58" as="targetPoint" />
          </mxGeometry>
        </mxCell>
        <mxCell id="W7nRIWuPNDp_MP-GWuMY-217" value="" style="endArrow=none;html=1;rounded=0;fontSize=12;startSize=8;endSize=8;curved=1;" edge="1" parent="1">
          <mxGeometry relative="1" as="geometry">
            <mxPoint x="-137" y="-295" as="sourcePoint" />
            <mxPoint x="-52.1800000000001" y="-333" as="targetPoint" />
          </mxGeometry>
        </mxCell>
        <mxCell id="W7nRIWuPNDp_MP-GWuMY-218" value="" style="ellipse;whiteSpace=wrap;html=1;aspect=fixed;strokeColor=#000000;fillColor=#000000;" vertex="1" parent="1">
          <mxGeometry x="115" y="-276" width="13" height="13" as="geometry" />
        </mxCell>
        <mxCell id="W7nRIWuPNDp_MP-GWuMY-219" value="" style="endArrow=none;html=1;rounded=0;fontSize=12;startSize=8;endSize=8;curved=1;exitX=0.999;exitY=0.066;exitDx=0;exitDy=0;entryX=0.222;entryY=0.911;entryDx=0;entryDy=0;entryPerimeter=0;exitPerimeter=0;" edge="1" parent="1" source="W7nRIWuPNDp_MP-GWuMY-194" target="W7nRIWuPNDp_MP-GWuMY-102">
          <mxGeometry relative="1" as="geometry">
            <mxPoint x="187.9964999999999" y="-319.5799999999999" as="sourcePoint" />
            <mxPoint x="308" y="-420" as="targetPoint" />
          </mxGeometry>
        </mxCell>
        <mxCell id="W7nRIWuPNDp_MP-GWuMY-220" value="" style="endArrow=none;html=1;rounded=0;fontSize=12;startSize=8;endSize=8;curved=1;" edge="1" parent="1">
          <mxGeometry relative="1" as="geometry">
            <mxPoint x="201.32" y="-350.43" as="sourcePoint" />
            <mxPoint x="318.82" y="-349.8" as="targetPoint" />
          </mxGeometry>
        </mxCell>
        <mxCell id="W7nRIWuPNDp_MP-GWuMY-221" value="N" style="resizable=0;html=1;whiteSpace=wrap;align=right;verticalAlign=bottom;" connectable="0" vertex="1" parent="W7nRIWuPNDp_MP-GWuMY-220">
          <mxGeometry x="1" relative="1" as="geometry">
            <mxPoint x="-102" y="-3" as="offset" />
          </mxGeometry>
        </mxCell>
        <mxCell id="W7nRIWuPNDp_MP-GWuMY-222" value="" style="endArrow=none;html=1;rounded=0;fontSize=12;startSize=8;endSize=8;curved=1;" edge="1" parent="1">
          <mxGeometry relative="1" as="geometry">
            <mxPoint x="491.5" y="-350.43" as="sourcePoint" />
            <mxPoint x="609" y="-349.8" as="targetPoint" />
          </mxGeometry>
        </mxCell>
        <mxCell id="W7nRIWuPNDp_MP-GWuMY-223" value="N" style="resizable=0;html=1;whiteSpace=wrap;align=right;verticalAlign=bottom;" connectable="0" vertex="1" parent="W7nRIWuPNDp_MP-GWuMY-222">
          <mxGeometry x="1" relative="1" as="geometry">
            <mxPoint x="-102" y="-3" as="offset" />
          </mxGeometry>
        </mxCell>
        <mxCell id="W7nRIWuPNDp_MP-GWuMY-228" value="Ricovero" style="rounded=1;arcSize=10;whiteSpace=wrap;html=1;align=center;" vertex="1" parent="1">
          <mxGeometry x="622" y="-88" width="253.5" height="66" as="geometry" />
        </mxCell>
        <mxCell id="W7nRIWuPNDp_MP-GWuMY-229" value="Sostituzione" style="rounded=1;arcSize=10;whiteSpace=wrap;html=1;align=center;" vertex="1" parent="1">
          <mxGeometry x="610" y="-383" width="253.5" height="66" as="geometry" />
        </mxCell>
        <mxCell id="W7nRIWuPNDp_MP-GWuMY-230" value="SostituzioniPrimario" style="shape=rhombus;perimeter=rhombusPerimeter;whiteSpace=wrap;html=1;align=center;" vertex="1" parent="1">
          <mxGeometry x="329" y="-89" width="175" height="60" as="geometry" />
        </mxCell>
      </root>
    </mxGraphModel>
  </diagram>
</mxfile>
